#N canvas 706 227 450 386 12;
#X msg 30 43 devices;
#X msg 150 23 open 5;
#X obj 33 114 mrpeach/slipdec;
#X obj 249 99 print;
#X obj 32 141 unpack f f f f f f f f;
#N canvas 179 340 450 300 BS 0;
#X obj 194 175 << 8;
#X obj 194 200 |;
#X floatatom 194 224 5 0 0 0 - - -;
#X obj 194 135 inlet _1;
#X obj 262 135 inlet _2;
#X obj 194 247 outlet;
#X connect 0 0 1 0;
#X connect 1 0 2 0;
#X connect 2 0 5 0;
#X connect 3 0 0 0;
#X connect 4 0 1 1;
#X restore 22 173 pd BS;
#X floatatom 22 197 5 0 0 0 - - -;
#N canvas 179 340 450 300 BS 0;
#X obj 194 175 << 8;
#X obj 194 200 |;
#X floatatom 194 224 5 0 0 0 - - -;
#X obj 194 135 inlet _1;
#X obj 262 135 inlet _2;
#X obj 194 247 outlet;
#X connect 0 0 1 0;
#X connect 1 0 2 0;
#X connect 2 0 5 0;
#X connect 3 0 0 0;
#X connect 4 0 1 1;
#X restore 70 171 pd BS;
#X floatatom 70 195 5 0 0 0 - - -;
#N canvas 179 340 450 300 BS 0;
#X obj 194 175 << 8;
#X obj 194 200 |;
#X floatatom 194 224 5 0 0 0 - - -;
#X obj 194 135 inlet _1;
#X obj 262 135 inlet _2;
#X obj 194 247 outlet;
#X connect 0 0 1 0;
#X connect 1 0 2 0;
#X connect 2 0 5 0;
#X connect 3 0 0 0;
#X connect 4 0 1 1;
#X restore 118 172 pd BS;
#X floatatom 118 196 5 0 0 0 - - -;
#N canvas 179 340 450 300 BS 0;
#X obj 194 175 << 8;
#X obj 194 200 |;
#X floatatom 194 224 5 0 0 0 - - -;
#X obj 194 135 inlet _1;
#X obj 262 135 inlet _2;
#X obj 194 247 outlet;
#X connect 0 0 1 0;
#X connect 1 0 2 0;
#X connect 2 0 5 0;
#X connect 3 0 0 0;
#X connect 4 0 1 1;
#X restore 162 173 pd BS;
#X floatatom 162 197 5 0 0 0 - - -;
#X obj 33 91 comport \$1 115200;
#X connect 0 0 13 0;
#X connect 1 0 13 0;
#X connect 2 0 4 0;
#X connect 4 0 5 0;
#X connect 4 1 5 1;
#X connect 4 2 7 0;
#X connect 4 3 7 1;
#X connect 4 4 9 0;
#X connect 4 5 9 1;
#X connect 4 6 11 0;
#X connect 4 7 11 1;
#X connect 5 0 6 0;
#X connect 7 0 8 0;
#X connect 9 0 10 0;
#X connect 11 0 12 0;
#X connect 13 0 2 0;
