#N canvas 91 78 787 752 12;
#X msg 33 63 devices;
#X obj 33 174 mrpeach/slipdec;
#N canvas 409 182 450 300 BS 0;
#X obj 194 200 |;
#X floatatom 194 224 5 0 0 0 - - -;
#X obj 141 127 inlet _1;
#X obj 262 135 inlet _2;
#X obj 194 247 outlet;
#X obj 261 175 << 8;
#X connect 0 0 1 0;
#X connect 1 0 4 0;
#X connect 2 0 0 0;
#X connect 3 0 5 0;
#X connect 5 0 0 1;
#X restore 131 252 pd BS;
#X msg 255 77 close;
#X obj 33 217 unpack f f f f f f;
#X obj 33 146 comport \$1 115200;
#X obj 135 196 print isValid;
#N canvas 1135 212 450 481 BS 0;
#X obj 194 200 |;
#X floatatom 194 224 5 0 0 0 - - -;
#X obj 143 153 inlet _1;
#X obj 215 153 inlet _2;
#X obj 194 247 outlet;
#X obj 215 176 << 8;
#X connect 0 0 1 0;
#X connect 1 0 4 0;
#X connect 2 0 0 0;
#X connect 3 0 5 0;
#X connect 5 0 0 1;
#X restore 33 252 pd BS;
#N canvas 409 182 450 300 BS 0;
#X obj 194 200 |;
#X floatatom 194 224 5 0 0 0 - - -;
#X obj 141 127 inlet _1;
#X obj 262 135 inlet _2;
#X obj 194 247 outlet;
#X obj 261 175 << 8;
#X connect 0 0 1 0;
#X connect 1 0 4 0;
#X connect 2 0 0 0;
#X connect 3 0 5 0;
#X connect 5 0 0 1;
#X restore 82 252 pd BS;
#X msg 134 63 open 5;
#X obj 33 279 2comp;
#X floatatom 82 302 5 0 0 0 - - -;
#X obj 82 280 2comp;
#X floatatom 131 304 5 0 0 0 - - -;
#X obj 131 280 2comp;
#X obj 197 229 loadbang;
#X msg 197 253 16;
#X floatatom 33 350 5 0 0 0 - - -;
#X floatatom 82 351 5 0 0 0 - - -;
#X floatatom 131 351 5 0 0 0 - - -;
#X floatatom 240 597 5 0 0 1 y - -;
#X floatatom 622 597 5 0 0 0 z - -;
#X floatatom 235 645 5 0 0 1 roll - -;
#X floatatom 431 599 5 0 0 1 x - -;
#X floatatom 58 449 5 0 0 1 x - -;
#X floatatom 475 449 5 0 0 0 z - -;
#X floatatom 58 513 5 0 0 1 pitch - -;
#X floatatom 256 449 5 0 0 1 y - -;
#X obj 33 40 inlet devices;
#X obj 134 40 inlet open;
#X obj 255 27 inlet close;
#X obj 28 592 outlet pitch;
#X obj 240 667 outlet roll;
#X obj 641 155 mrpeach/slipenc;
#X obj 641 131 pack f;
#X floatatom 641 109 5 0 255 0 - - -;
#X text 242 202 INPUT;
#X text 630 52 OUTPUT;
#X obj 255 100 print;
#X obj 134 87 print;
#X msg 641 88 0;
#X obj 641 70 bng 15 250 50 0 empty empty empty 17 7 0 10 -262144 -1
-1;
#X msg 192 63 open 4;
#X floatatom 33 303 5 0 0 0 - - -;
#X text 64 5 voir pour envoyer un bang avec le trigger du joystick
(hid) pour partir le sensor;
#X obj 255 51 delay 500;
#X obj 692 80 inlet moteur;
#X obj 58 472 expr atan(-1 * $f1 / (sqrt(pow($f2 \, 2) + pow($f3 \,
2)))) * 57.3;
#X obj 33 326 / 256;
#X obj 82 327 / 256;
#X obj 131 327 / 256;
#X obj 240 620 expr atan($f1 / (sqrt(pow($f2 \, 2) + pow($f3 \, 2))))
* 57.3;
#X obj 58 536 / 256;
#X floatatom 58 560 5 0 0 0 - - -;
#X obj 177 676 / 256;
#X floatatom 177 700 5 0 0 0 - - -;
#X connect 0 0 5 0;
#X connect 1 0 4 0;
#X connect 1 1 6 0;
#X connect 2 0 14 0;
#X connect 3 0 38 0;
#X connect 3 0 5 0;
#X connect 4 0 7 0;
#X connect 4 1 7 1;
#X connect 4 2 8 0;
#X connect 4 3 8 1;
#X connect 4 4 2 0;
#X connect 4 5 2 1;
#X connect 5 0 1 0;
#X connect 7 0 10 0;
#X connect 8 0 12 0;
#X connect 9 0 5 0;
#X connect 9 0 39 0;
#X connect 9 0 41 0;
#X connect 10 0 43 0;
#X connect 11 0 49 0;
#X connect 12 0 11 0;
#X connect 13 0 50 0;
#X connect 14 0 13 0;
#X connect 15 0 16 0;
#X connect 16 0 14 1;
#X connect 16 0 12 1;
#X connect 16 0 10 1;
#X connect 17 0 24 0;
#X connect 17 0 23 0;
#X connect 18 0 27 0;
#X connect 18 0 20 0;
#X connect 19 0 25 0;
#X connect 19 0 21 0;
#X connect 20 0 51 0;
#X connect 21 0 51 2;
#X connect 22 0 32 0;
#X connect 22 0 54 0;
#X connect 23 0 51 1;
#X connect 24 0 47 0;
#X connect 25 0 47 2;
#X connect 26 0 31 0;
#X connect 26 0 52 0;
#X connect 27 0 47 1;
#X connect 28 0 0 0;
#X connect 29 0 9 0;
#X connect 30 0 45 0;
#X connect 30 0 41 0;
#X connect 33 0 5 0;
#X connect 34 0 33 0;
#X connect 35 0 34 0;
#X connect 40 0 35 0;
#X connect 41 0 40 0;
#X connect 42 0 39 0;
#X connect 42 0 41 0;
#X connect 43 0 48 0;
#X connect 45 0 3 0;
#X connect 46 0 35 0;
#X connect 47 0 26 0;
#X connect 48 0 17 0;
#X connect 49 0 18 0;
#X connect 50 0 19 0;
#X connect 51 0 22 0;
#X connect 52 0 53 0;
#X connect 54 0 55 0;
