#N canvas 1142 55 684 407 12;
#X msg 30 43 devices;
#X msg 150 23 open 5;
#X obj 33 174 mrpeach/slipdec;
#N canvas 179 340 450 300 BS 0;
#X obj 194 175 << 8;
#X obj 194 200 |;
#X floatatom 194 224 5 0 0 0 - - -;
#X obj 194 135 inlet _1;
#X obj 262 135 inlet _2;
#X obj 194 247 outlet;
#X connect 0 0 1 0;
#X connect 1 0 2 0;
#X connect 2 0 5 0;
#X connect 3 0 0 0;
#X connect 4 0 1 1;
#X restore 22 233 pd BS;
#X floatatom 22 257 5 0 0 0 - - -;
#N canvas 179 340 450 300 BS 0;
#X obj 194 175 << 8;
#X obj 194 200 |;
#X floatatom 194 224 5 0 0 0 - - -;
#X obj 194 135 inlet _1;
#X obj 262 135 inlet _2;
#X obj 194 247 outlet;
#X connect 0 0 1 0;
#X connect 1 0 2 0;
#X connect 2 0 5 0;
#X connect 3 0 0 0;
#X connect 4 0 1 1;
#X restore 70 231 pd BS;
#X floatatom 70 255 5 0 0 0 - - -;
#N canvas 179 340 450 300 BS 0;
#X obj 194 175 << 8;
#X obj 194 200 |;
#X floatatom 194 224 5 0 0 0 - - -;
#X obj 194 135 inlet _1;
#X obj 262 135 inlet _2;
#X obj 194 247 outlet;
#X connect 0 0 1 0;
#X connect 1 0 2 0;
#X connect 2 0 5 0;
#X connect 3 0 0 0;
#X connect 4 0 1 1;
#X restore 118 232 pd BS;
#X floatatom 118 256 5 0 0 0 - - -;
#N canvas 179 340 450 300 BS 0;
#X obj 194 175 << 8;
#X obj 194 200 |;
#X floatatom 194 224 5 0 0 0 - - -;
#X obj 194 135 inlet _1;
#X obj 262 135 inlet _2;
#X obj 194 247 outlet;
#X connect 0 0 1 0;
#X connect 1 0 2 0;
#X connect 2 0 5 0;
#X connect 3 0 0 0;
#X connect 4 0 1 1;
#X restore 162 233 pd BS;
#X floatatom 162 257 5 0 0 0 - - -;
#X msg 236 21 open 4;
#X msg 349 26 close;
#X obj 33 91 comport \$1 115200;
#X obj 297 163 print valid;
#X obj 32 201 unpack f f f f f f f f f f f f f f;
#N canvas 179 340 450 300 BS 0;
#X obj 194 175 << 8;
#X obj 194 200 |;
#X floatatom 194 224 5 0 0 0 - - -;
#X obj 194 135 inlet _1;
#X obj 262 135 inlet _2;
#X obj 194 247 outlet;
#X connect 0 0 1 0;
#X connect 1 0 2 0;
#X connect 2 0 5 0;
#X connect 3 0 0 0;
#X connect 4 0 1 1;
#X restore 209 232 pd BS;
#X floatatom 209 256 5 0 0 0 - - -;
#N canvas 179 340 450 300 BS 0;
#X obj 194 175 << 8;
#X obj 194 200 |;
#X floatatom 194 224 5 0 0 0 - - -;
#X obj 194 135 inlet _1;
#X obj 262 135 inlet _2;
#X obj 194 247 outlet;
#X connect 0 0 1 0;
#X connect 1 0 2 0;
#X connect 2 0 5 0;
#X connect 3 0 0 0;
#X connect 4 0 1 1;
#X restore 264 232 pd BS;
#X floatatom 264 256 5 0 0 0 - - -;
#N canvas 179 340 450 300 BS 0;
#X obj 194 175 << 8;
#X obj 194 200 |;
#X floatatom 194 224 5 0 0 0 - - -;
#X obj 194 135 inlet _1;
#X obj 262 135 inlet _2;
#X obj 194 247 outlet;
#X connect 0 0 1 0;
#X connect 1 0 2 0;
#X connect 2 0 5 0;
#X connect 3 0 0 0;
#X connect 4 0 1 1;
#X restore 313 232 pd BS;
#X floatatom 313 256 5 0 0 0 - - -;
#X connect 0 0 13 0;
#X connect 1 0 13 0;
#X connect 2 0 15 0;
#X connect 2 1 14 0;
#X connect 3 0 4 0;
#X connect 5 0 6 0;
#X connect 7 0 8 0;
#X connect 9 0 10 0;
#X connect 11 0 13 0;
#X connect 12 0 13 0;
#X connect 13 0 2 0;
#X connect 15 0 3 0;
#X connect 15 1 3 1;
#X connect 15 2 5 0;
#X connect 15 3 5 1;
#X connect 15 4 7 0;
#X connect 15 5 7 1;
#X connect 15 6 9 0;
#X connect 15 7 9 1;
#X connect 15 8 16 0;
#X connect 15 9 16 1;
#X connect 15 10 18 0;
#X connect 15 11 18 1;
#X connect 15 12 20 0;
#X connect 15 13 20 1;
#X connect 16 0 17 0;
#X connect 18 0 19 0;
#X connect 20 0 21 0;
