#N canvas 640 374 450 386 12;
#X msg 30 43 devices;
#X msg 131 33 open 5;
#X obj 33 114 mrpeach/slipdec;
#X obj 33 138 unpack f f f f;
#X obj 33 175 << 8;
#X obj 96 174 << 8;
#X obj 33 199 |;
#X obj 96 199 |;
#X floatatom 33 225 5 0 0 0 - - -;
#X floatatom 96 223 5 0 0 0 - - -;
#X obj 33 90 comport 9600;
#X connect 0 0 10 0;
#X connect 1 0 10 0;
#X connect 2 0 3 0;
#X connect 3 0 4 0;
#X connect 3 1 6 1;
#X connect 3 2 5 0;
#X connect 3 3 7 1;
#X connect 4 0 6 0;
#X connect 5 0 7 0;
#X connect 6 0 8 0;
#X connect 7 0 9 0;
#X connect 10 0 2 0;
