#N canvas 929 96 684 573 12;
#X msg 33 50 devices;
#X obj 33 174 mrpeach/slipdec;
#N canvas 179 340 450 300 BS 0;
#X obj 194 175 << 8;
#X obj 194 200 |;
#X floatatom 194 224 5 0 0 0 - - -;
#X obj 194 135 inlet _1;
#X obj 262 135 inlet _2;
#X obj 194 247 outlet;
#X connect 0 0 1 0;
#X connect 1 0 2 0;
#X connect 2 0 5 0;
#X connect 3 0 0 0;
#X connect 4 0 1 1;
#X restore 32 266 pd BS;
#X floatatom 29 344 5 0 0 0 - - -;
#N canvas 179 340 450 300 BS 0;
#X obj 194 175 << 8;
#X obj 194 200 |;
#X floatatom 194 224 5 0 0 0 - - -;
#X obj 194 135 inlet _1;
#X obj 262 135 inlet _2;
#X obj 194 247 outlet;
#X connect 0 0 1 0;
#X connect 1 0 2 0;
#X connect 2 0 5 0;
#X connect 3 0 0 0;
#X connect 4 0 1 1;
#X restore 76 266 pd BS;
#X floatatom 328 349 5 0 0 0 - - -;
#N canvas 289 306 450 300 BS 0;
#X obj 194 200 |;
#X floatatom 194 224 5 0 0 0 - - -;
#X obj 194 135 inlet _1;
#X obj 262 135 inlet _2;
#X obj 194 247 outlet;
#X obj 194 175 >> 8;
#X connect 0 0 1 0;
#X connect 1 0 4 0;
#X connect 2 0 5 0;
#X connect 3 0 0 1;
#X connect 5 0 0 0;
#X restore 120 266 pd BS;
#X floatatom 328 369 5 0 0 0 - - -;
#X msg 108 53 open 4;
#X msg 111 80 close;
#X obj 32 201 unpack f f f f f f;
#X obj 33 146 comport \$1 115200;
#X obj 147 173 print isValid;
#X obj 23 314 / 256;
#X floatatom 84 339 5 0 0 0 - - -;
#X obj 78 309 / 256;
#X floatatom 157 353 5 0 0 0 - - -;
#X obj 151 323 / 256;
#X floatatom 328 329 5 0 0 0 - - -;
#X text 161 263 <--bitshift dans l'autre sens;
#X connect 0 0 11 0;
#X connect 1 0 10 0;
#X connect 1 1 12 0;
#X connect 2 0 13 0;
#X connect 2 0 18 0;
#X connect 4 0 5 0;
#X connect 4 0 15 0;
#X connect 6 0 7 0;
#X connect 6 0 17 0;
#X connect 8 0 11 0;
#X connect 9 0 11 0;
#X connect 10 0 2 0;
#X connect 10 1 2 1;
#X connect 10 2 4 0;
#X connect 10 3 4 1;
#X connect 10 4 6 0;
#X connect 10 5 6 1;
#X connect 11 0 1 0;
#X connect 13 0 3 0;
#X connect 15 0 14 0;
#X connect 17 0 16 0;
