#N canvas 929 96 684 573 12;
#X msg 33 50 devices;
#X obj 33 174 mrpeach/slipdec;
#N canvas 409 182 450 300 BS 0;
#X obj 194 200 |;
#X floatatom 194 224 5 0 0 0 - - -;
#X obj 141 127 inlet _1;
#X obj 262 135 inlet _2;
#X obj 194 247 outlet;
#X obj 261 175 << 8;
#X connect 0 0 1 0;
#X connect 1 0 4 0;
#X connect 2 0 0 0;
#X connect 3 0 5 0;
#X connect 5 0 0 1;
#X restore 147 269 pd BS;
#X floatatom 146 293 5 0 0 0 - - -;
#X msg 111 80 close;
#X obj 32 201 unpack f f f f f f;
#X obj 33 146 comport \$1 115200;
#X obj 177 172 print isValid;
#N canvas 1135 212 450 300 BS 0;
#X obj 194 200 |;
#X floatatom 194 224 5 0 0 0 - - -;
#X obj 143 153 inlet _1;
#X obj 215 153 inlet _2;
#X obj 194 247 outlet;
#X obj 215 176 << 8;
#X connect 0 0 1 0;
#X connect 1 0 4 0;
#X connect 2 0 0 0;
#X connect 3 0 5 0;
#X connect 5 0 0 1;
#X restore 33 264 pd BS;
#X floatatom 32 288 5 0 0 0 - - -;
#N canvas 409 182 450 300 BS 0;
#X obj 194 200 |;
#X floatatom 194 224 5 0 0 0 - - -;
#X obj 141 127 inlet _1;
#X obj 262 135 inlet _2;
#X obj 194 247 outlet;
#X obj 261 175 << 8;
#X connect 0 0 1 0;
#X connect 1 0 4 0;
#X connect 2 0 0 0;
#X connect 3 0 5 0;
#X connect 5 0 0 1;
#X restore 92 268 pd BS;
#X floatatom 91 292 5 0 0 0 - - -;
#X obj 32 315 / 256;
#X floatatom 32 339 5 0 0 0 - - -;
#X obj 91 315 / 256;
#X floatatom 91 339 5 0 0 0 - - -;
#X obj 146 316 / 256;
#X floatatom 146 340 5 0 0 0 - - -;
#X msg 108 53 open 5;
#X floatatom 273 399 5 0 0 0 - - -;
#X obj 273 375 2comp;
#X msg 283 260 16;
#X obj 273 422 / 256;
#X connect 0 0 6 0;
#X connect 1 0 5 0;
#X connect 1 1 7 0;
#X connect 2 0 3 0;
#X connect 3 0 16 0;
#X connect 4 0 6 0;
#X connect 5 0 8 0;
#X connect 5 1 8 1;
#X connect 5 2 10 0;
#X connect 5 3 10 1;
#X connect 5 4 2 0;
#X connect 5 5 2 1;
#X connect 6 0 1 0;
#X connect 8 0 9 0;
#X connect 9 0 12 0;
#X connect 9 0 20 0;
#X connect 10 0 11 0;
#X connect 11 0 14 0;
#X connect 12 0 13 0;
#X connect 14 0 15 0;
#X connect 16 0 17 0;
#X connect 18 0 6 0;
#X connect 19 0 22 0;
#X connect 20 0 19 0;
#X connect 21 0 20 1;
