#N canvas 493 310 746 577 12;
#X obj 94 209 hidio;
#X msg 95 20 open 0x046d 0xc214;
#X msg 122 96 info;
#X msg 105 44 devices;
#X msg 115 71 elements;
#N canvas 944 519 709 310 device 0;
#N canvas 187 530 1014 264 route 0;
#X obj 27 14 inlet;
#X obj 72 226 outlet;
#X obj 19 226 outlet;
#X obj 172 226 outlet;
#X obj 222 204 symbol;
#X obj 222 226 outlet;
#X obj 272 204 symbol;
#X obj 272 226 outlet;
#X obj 322 204 symbol;
#X obj 322 226 outlet;
#X obj 372 204 symbol;
#X obj 372 226 outlet;
#X obj 122 225 outlet;
#X obj 422 204 symbol;
#X obj 422 226 outlet;
#X obj 472 204 symbol;
#X obj 472 226 outlet;
#X obj 27 59 route open device poll total product manufacturer transport
type vendorID productID serial version, f 99;
#X obj 524 204 symbol;
#X obj 524 226 outlet;
#X obj 574 204 symbol;
#X obj 574 226 outlet;
#X obj 624 226 outlet;
#X connect 0 0 17 0;
#X connect 4 0 5 0;
#X connect 6 0 7 0;
#X connect 8 0 9 0;
#X connect 10 0 11 0;
#X connect 13 0 14 0;
#X connect 15 0 16 0;
#X connect 17 0 2 0;
#X connect 17 1 1 0;
#X connect 17 2 12 0;
#X connect 17 3 3 0;
#X connect 17 4 4 0;
#X connect 17 5 6 0;
#X connect 17 6 8 0;
#X connect 17 7 10 0;
#X connect 17 8 13 0;
#X connect 17 9 15 0;
#X connect 17 10 18 0;
#X connect 17 11 20 0;
#X connect 17 12 22 0;
#X connect 18 0 19 0;
#X connect 20 0 21 0;
#X restore 111 131 pd route info;
#X f 70;
#X obj 111 196 tgl 15 0 empty empty open 0 -6 0 8 -262144 -1 -1 1 1
;
#X obj 111 22 inlet;
#X obj 157 104 print info;
#X symbolatom 423 152 0 0 0 0 productID - -;
#X symbolatom 389 172 0 0 0 0 vendorID - -;
#X symbolatom 319 212 0 0 0 0 transport - -;
#X symbolatom 284 232 0 0 0 0 manufacturer - -;
#X symbolatom 250 253 0 0 0 0 product - -;
#X floatatom 145 152 5 0 0 0 device - -;
#X floatatom 180 172 5 0 0 0 poll - -;
#X symbolatom 354 192 0 0 0 0 type - -;
#X floatatom 215 192 5 0 0 0 total - -;
#X obj 208 22 inlet;
#N canvas 0 22 450 300 spigot 0;
#X obj 78 31 inlet;
#X obj 83 263 outlet;
#X obj 210 32 inlet;
#X obj 210 67 select 0;
#X msg 210 90 0;
#X obj 255 89 bang;
#X obj 82 148 spigot;
#X msg 255 110 1;
#X connect 0 0 6 0;
#X connect 2 0 3 0;
#X connect 3 0 4 0;
#X connect 3 1 5 0;
#X connect 4 0 6 1;
#X connect 5 0 7 0;
#X connect 6 0 1 0;
#X connect 7 0 6 1;
#X restore 157 84 pd spigot;
#X symbolatom 460 212 0 0 0 0 serial - -;
#X symbolatom 493 192 0 0 0 0 version - -;
#X obj 528 152 print other_info;
#X obj 423 255 print prod ID;
#X obj 338 282 print vend ID;
#X connect 0 0 1 0;
#X connect 0 1 9 0;
#X connect 0 2 10 0;
#X connect 0 3 12 0;
#X connect 0 4 8 0;
#X connect 0 5 7 0;
#X connect 0 6 6 0;
#X connect 0 7 11 0;
#X connect 0 8 5 0;
#X connect 0 9 4 0;
#X connect 0 10 15 0;
#X connect 0 11 16 0;
#X connect 0 12 17 0;
#X connect 2 0 0 0;
#X connect 2 0 14 0;
#X connect 4 0 18 0;
#X connect 5 0 19 0;
#X connect 13 0 14 1;
#X connect 14 0 3 0;
#X restore 126 240 pd device info;
#X obj 221 222 tgl 15 0 empty empty empty 17 7 0 10 -262144 -1 -1 1
1;
#X obj 62 166 tgl 15 0 empty empty empty 17 7 0 10 -262144 -1 -1 0
1;
#X floatatom 173 97 5 0 0 0 - - -;
#X msg 173 120 open \$1;
#X obj 221 197 loadbang;
#X floatatom 142 407 6 0 0 0 - - -;
#X floatatom 192 407 6 0 0 0 - - -;
#X floatatom 92 407 6 0 0 0 - - -;
#N canvas 421 390 454 252 remove 0;
#X obj 134 12 inlet;
#X obj 109 60 unpack symbol symbol float float;
#X obj 110 107 pack symbol symbol float;
#X obj 110 135 list trim;
#X obj 116 196 outlet;
#X connect 0 0 1 0;
#X connect 1 0 2 0;
#X connect 1 1 2 1;
#X connect 1 3 2 2;
#X connect 2 0 3 0;
#X connect 3 0 4 0;
#X restore 94 326 pd remove instance numbers;
#X obj 94 375 route x y z;
#X obj 94 350 route absolute button;
#X obj 508 223 unpack symbol;
#X symbolatom 508 251 15 0 0 1 - - -;
#N canvas 407 293 674 450 btn-output 0;
#X floatatom 110 218 5 0 0 3 _1 - -;
#X obj 119 143 inlet;
#X obj 119 167 route button_1 button_2 button_3 button_4 button_5 button_6
button_7 button_8 button_9 button_10 button_11;
#X floatatom 152 219 5 0 0 3 _2 - -;
#X floatatom 192 219 5 0 0 3 _3 - -;
#X floatatom 232 219 5 0 0 3 _4 - -;
#X floatatom 273 219 5 0 0 3 _5 - -;
#X floatatom 313 219 5 0 0 3 _6 - -;
#X floatatom 359 223 5 0 0 3 _7 - -;
#X floatatom 405 225 5 0 0 3 _8 - -;
#X floatatom 451 225 5 0 0 3 _9 - -;
#X floatatom 498 225 5 0 0 3 _10 - -;
#X floatatom 553 226 5 0 0 3 _11 - -;
#X connect 1 0 2 0;
#X connect 2 0 0 0;
#X connect 2 1 3 0;
#X connect 2 2 4 0;
#X connect 2 3 5 0;
#X connect 2 4 6 0;
#X connect 2 5 7 0;
#X connect 2 6 8 0;
#X connect 2 7 9 0;
#X connect 2 8 10 0;
#X connect 2 9 11 0;
#X connect 2 10 12 0;
#X restore 335 389 pd btn-output;
#X f 15;
#X obj 24 110 inlet bng;
#X obj 92 430 outlet x;
#X obj 142 465 outlet y;
#X obj 192 430 outlet z;
#X obj 242 70 inlet deviceNum;
#X obj 444 32 inlet decices;
#X connect 0 0 14 0;
#X connect 0 0 17 0;
#X connect 0 1 5 0;
#X connect 1 0 0 0;
#X connect 2 0 0 0;
#X connect 3 0 0 0;
#X connect 4 0 0 0;
#X connect 6 0 5 1;
#X connect 7 0 0 0;
#X connect 8 0 9 0;
#X connect 9 0 0 0;
#X connect 10 0 6 0;
#X connect 11 0 22 0;
#X connect 12 0 23 0;
#X connect 13 0 21 0;
#X connect 14 0 16 0;
#X connect 15 0 13 0;
#X connect 15 1 11 0;
#X connect 15 2 12 0;
#X connect 16 0 15 0;
#X connect 16 1 19 0;
#X connect 17 0 18 0;
#X connect 20 0 7 0;
#X connect 24 0 8 0;
#X connect 25 0 3 0;
