#N canvas 1056 131 745 546 12;
#X obj 284 353 dac~;
#X obj 278 327 *~;
#X obj 310 327 *~;
#X obj 355 287 line~;
#X obj 358 242 hsl 128 15 0 1 0 0 empty empty empty -2 -8 0 10 -258113
-4032 -4032 0 1;
#X msg 355 265 \$1 50;
#N canvas 600 386 450 300 bandpass 0;
#X obj 84 45 inlet~ input;
#X obj 187 47 inlet frq;
#X obj 286 43 inlet q;
#X obj 161 177 outlet~;
#X obj 160 153 lop~ 100;
#X connect 0 0 4 0;
#X connect 1 0 4 1;
#X connect 4 0 3 0;
#X restore 230 288 pd bandpass;
#X obj 102 245 303~;
#X floatatom 89 222 5 20 20000 2 Freq - -;
#X floatatom 127 223 5 0 100 2 filter - -;
#X obj 43 103 tgl 20 0 empty empty press_btn_1 25 7 0 12 -4034 -262144
-258113 0 1;
#X obj 43 127 metro 150;
#X obj 43 177 + 20;
#X obj 43 151 random 100;
#X floatatom 267 266 5 0 20000 0 - - -;
#X floatatom 304 266 5 0 3 0 - - -;
#X obj 262 97 hid_control;
#X obj 262 78 tgl 15 0 empty empty empty 17 7 0 10 -262144 -1 -1 0
1;
#X floatatom 231 128 5 0 0 0 - - -;
#X floatatom 292 132 5 0 0 0 - - -;
#X floatatom 355 132 5 0 0 0 - - -;
#X obj 336 78 bng 15 250 50 0 empty empty devices_list 17 7 0 10 -262144
-1 -1;
#X floatatom 299 45 5 0 50 1 device_num - -;
#X obj 231 176 + 1;
#X obj 231 152 / 2;
#X obj 292 156 * 78;
#X obj 43 73 receive start-stop;
#X obj 355 154 * -1;
#X obj 355 177 + 255;
#X obj 355 200 / 255;
#X obj 292 180 * -1;
#X obj 292 204 + 19890;
#X obj 48 362 arduino_serial_input;
#X obj 48 343 bng 15 250 50 0 empty empty empty 17 7 0 10 -262144 -1
-1;
#X obj 116 343 bng 15 250 50 0 empty empty empty 17 7 0 10 -262144
-1 -1;
#X obj 185 343 bng 15 250 50 0 empty empty empty 17 7 0 10 -262144
-1 -1;
#X floatatom 48 386 5 0 0 1 pitch - -;
#X floatatom 185 386 5 0 0 1 roll - -;
#X connect 1 0 0 0;
#X connect 2 0 0 1;
#X connect 3 0 1 1;
#X connect 3 0 2 1;
#X connect 4 0 5 0;
#X connect 5 0 3 0;
#X connect 6 0 1 0;
#X connect 6 0 2 0;
#X connect 7 0 6 0;
#X connect 8 0 7 0;
#X connect 9 0 7 1;
#X connect 10 0 11 0;
#X connect 11 0 13 0;
#X connect 12 0 8 0;
#X connect 13 0 12 0;
#X connect 14 0 6 1;
#X connect 15 0 6 2;
#X connect 16 0 18 0;
#X connect 16 1 19 0;
#X connect 16 2 20 0;
#X connect 17 0 16 0;
#X connect 18 0 24 0;
#X connect 19 0 25 0;
#X connect 20 0 27 0;
#X connect 21 0 16 2;
#X connect 22 0 16 1;
#X connect 23 0 9 0;
#X connect 24 0 23 0;
#X connect 25 0 30 0;
#X connect 26 0 10 0;
#X connect 27 0 28 0;
#X connect 28 0 29 0;
#X connect 29 0 4 0;
#X connect 30 0 31 0;
#X connect 31 0 14 0;
#X connect 32 0 36 0;
#X connect 32 1 37 0;
#X connect 33 0 32 0;
#X connect 34 0 32 1;
#X connect 35 0 32 2;
