#N canvas 898 184 604 634 12;
#X floatatom 56 186 5 0 0 1 value - -;
#X obj 163 217 expr $f1 & ~$f2;
#X obj 56 217 expr $f1 & $f2;
#X obj 56 239 * -1;
#X obj 145 276 +;
#X floatatom 145 300 5 0 0 0 - - -;
#X obj 56 157 inlet value;
#X obj 145 323 outlet;
#X obj 151 190 expr pow(2 \, (16 - 1));
#X connect 0 0 1 0;
#X connect 0 0 2 0;
#X connect 1 0 4 1;
#X connect 2 0 3 0;
#X connect 3 0 4 0;
#X connect 4 0 5 0;
#X connect 5 0 7 0;
#X connect 6 0 0 0;
#X connect 8 0 1 1;
#X connect 8 0 2 1;
