#N canvas 15 34 604 693 12;
#X obj 56 239 * -1;
#X obj 156 274 +;
#X obj 56 173 inlet value;
#X obj 156 299 outlet;
#X obj 174 217 expr $f1 & ~$f2;
#X obj 56 217 expr $f1 & $f2;
#X obj 151 172 expr pow(2 \, ($f1 - 1));
#X floatatom 151 148 5 0 0 1 nbr_bits - -;
#X text 38 59 two's complement;
#X obj 151 125 inlet bits;
#X floatatom 210 274 5 0 0 0 - - -;
#X connect 0 0 1 0;
#X connect 1 0 3 0;
#X connect 1 0 10 0;
#X connect 2 0 4 0;
#X connect 2 0 5 0;
#X connect 4 0 1 1;
#X connect 5 0 0 0;
#X connect 6 0 4 1;
#X connect 6 0 5 1;
#X connect 7 0 6 0;
#X connect 9 0 7 0;
