#N canvas 733 98 604 693 12;
#X obj 56 239 * -1;
#X obj 156 274 +;
#X obj 56 194 inlet value;
#X obj 156 299 outlet;
#X obj 174 217 expr $f1 & ~32768;
#X obj 56 217 expr $f1 & 32768;
#X text 114 107 two's complement with 16bits;
#X connect 0 0 1 0;
#X connect 1 0 3 0;
#X connect 2 0 5 0;
#X connect 2 0 4 0;
#X connect 4 0 1 1;
#X connect 5 0 0 0;
