#N canvas 813 105 604 693 12;
#X floatatom 56 186 5 0 0 1 value - -;
#X obj 56 239 * -1;
#X obj 156 274 +;
#X floatatom 156 298 5 0 0 0 - - -;
#X obj 56 157 inlet value;
#X obj 156 321 outlet;
#X obj 174 217 expr $f1 & ~32768;
#X obj 56 217 expr $f1 & 32768;
#X text 114 107 two's complement with 16bits;
#X connect 0 0 6 0;
#X connect 0 0 7 0;
#X connect 1 0 2 0;
#X connect 2 0 3 0;
#X connect 3 0 5 0;
#X connect 4 0 0 0;
#X connect 6 0 2 1;
#X connect 7 0 1 0;
