#N canvas 614 139 450 537 12;
#X obj 56 110 t f b b, f 26;
#X obj 56 134 mtof;
#X obj 56 177 phasor~;
#X obj 56 201 vcf~ 1;
#X obj 145 177 *~ 5000;
#X floatatom 191 156 5 0 0 1 cutoff_Hz - -;
#X floatatom 314 110 5 0 0 1 amp_decay - -;
#X floatatom 110 201 5 0 0 1 Resonnance - -;
#X obj 95 226 *~;
#X obj 96 250 outlet~;
#X floatatom 219 87 5 0 0 2 filter_decay - -;
#X floatatom 56 77 5 0 0 0 - - -;
#X floatatom 95 77 5 0 0 0 - - -;
#X obj 77 155 * 8;
#X msg 219 48 182;
#X msg 314 89 571;
#X msg 239 231 6;
#X obj 371 48 loadbang;
#X obj 21 43 inlet frq;
#X obj 95 43 inlet filterOpen;
#X text 9 316 https://www.youtube.com/watch?v=_qImZOcHz2U&ab_channel=ReallyUsefulPlugins
;
#N canvas 1170 253 450 300 envelo 0;
#X obj 68 70 bng 15 250 50 0 empty empty empty 17 7 0 10 -262144 -1
-1;
#X msg 68 90 1 3;
#X obj 142 74 del 50;
#X obj 142 100 pack 0 500;
#X obj 68 44 inlet bng;
#X obj 235 45 inlet decay;
#X floatatom 235 71 5 0 0 1 decay_time - -;
#X obj 101 151 line~;
#X obj 101 177 *~;
#X obj 103 204 *~;
#X obj 103 230 outlet~;
#X connect 0 0 1 0;
#X connect 0 0 2 0;
#X connect 1 0 7 0;
#X connect 2 0 3 0;
#X connect 3 0 7 0;
#X connect 4 0 0 0;
#X connect 5 0 6 0;
#X connect 6 0 3 1;
#X connect 7 0 8 0;
#X connect 7 0 8 1;
#X connect 8 0 9 0;
#X connect 8 0 9 1;
#X connect 9 0 10 0;
#X restore 234 135 pd envelo;
#N canvas 1170 253 450 300 envelo 0;
#X obj 68 70 bng 15 250 50 0 empty empty empty 17 7 0 10 -262144 -1
-1;
#X msg 68 90 1 3;
#X obj 142 74 del 50;
#X obj 142 100 pack 0 500;
#X obj 68 44 inlet bng;
#X obj 235 45 inlet decay;
#X floatatom 235 71 5 0 0 1 decay_time - -;
#X obj 101 151 line~;
#X obj 101 177 *~;
#X obj 103 204 *~;
#X obj 103 230 outlet~;
#X connect 0 0 1 0;
#X connect 0 0 2 0;
#X connect 1 0 7 0;
#X connect 2 0 3 0;
#X connect 3 0 7 0;
#X connect 4 0 0 0;
#X connect 5 0 6 0;
#X connect 6 0 3 1;
#X connect 7 0 8 0;
#X connect 7 0 8 1;
#X connect 8 0 9 0;
#X connect 8 0 9 1;
#X connect 9 0 10 0;
#X restore 146 135 pd envelo;
#X connect 0 0 1 0;
#X connect 0 1 22 0;
#X connect 0 2 21 0;
#X connect 1 0 2 0;
#X connect 1 0 13 0;
#X connect 2 0 3 0;
#X connect 3 1 8 0;
#X connect 4 0 3 1;
#X connect 5 0 4 1;
#X connect 6 0 21 1;
#X connect 7 0 3 2;
#X connect 8 0 9 0;
#X connect 10 0 22 1;
#X connect 11 0 0 0;
#X connect 12 0 13 1;
#X connect 13 0 5 0;
#X connect 14 0 10 0;
#X connect 15 0 6 0;
#X connect 16 0 7 0;
#X connect 17 0 16 0;
#X connect 17 0 15 0;
#X connect 17 0 14 0;
#X connect 18 0 11 0;
#X connect 19 0 12 0;
#X connect 21 0 8 1;
#X connect 22 0 4 0;
