#N canvas 541 40 1128 872 12;
#X msg 33 63 devices;
#X obj 28 270 mrpeach/slipdec;
#X msg 255 77 close;
#X obj 28 299 unpack f f f f f f;
#X msg 134 63 open 5;
#X floatatom 490 531 5 0 0 1 y - -;
#X floatatom 886 532 5 0 0 0 z - -;
#X floatatom 490 579 5 0 0 1 roll - -;
#X floatatom 688 532 5 0 0 1 x - -;
#X floatatom 33 531 5 0 0 1 x - -;
#X floatatom 429 531 5 0 0 0 z - -;
#X floatatom 33 601 5 0 0 1 pitch - -;
#X floatatom 231 531 5 0 0 1 y - -;
#X obj 33 40 inlet devices;
#X obj 134 40 inlet open;
#X obj 255 27 inlet close;
#X obj 33 626 outlet pitch;
#X obj 491 677 outlet roll;
#X text 401 300 INPUT;
#X obj 255 100 print;
#X obj 134 87 print;
#X msg 192 63 open 4;
#X obj 255 51 delay 500;
#X obj 33 553 expr atan(-1 * $f1 / (sqrt(pow($f2 \, 2) + pow($f3 \,
2)))) * 57.3, f 63;
#X obj 490 554 expr atan($f1 / (sqrt(pow($f2 \, 2) + pow($f3 \, 2))))
* 57.3;
#X text 115 603 gauche-droite;
#X text 573 582 avant arriere;
#X obj 58 199 print;
#X obj 32 171 comport \$1 9600;
#N canvas 831 172 450 481 BS1 0;
#X obj 195 241 |;
#X obj 143 153 inlet _1;
#X obj 215 153 inlet _2;
#X obj 194 266 outlet;
#X obj 178 199 << 8;
#X connect 0 0 3 0;
#X connect 1 0 4 0;
#X connect 2 0 0 1;
#X connect 4 0 0 0;
#X restore 28 327 pd BS1;
#N canvas 1232 189 450 481 BS1 0;
#X obj 195 241 |;
#X floatatom 195 265 5 0 0 0 - - -;
#X obj 143 153 inlet _1;
#X obj 215 153 inlet _2;
#X obj 195 288 outlet;
#X obj 178 199 << 8;
#X connect 0 0 1 0;
#X connect 1 0 4 0;
#X connect 2 0 5 0;
#X connect 3 0 0 1;
#X connect 5 0 0 0;
#X restore 78 327 pd BS1;
#N canvas 1232 189 450 481 BS1 0;
#X obj 195 241 |;
#X floatatom 195 265 5 0 0 0 - - -;
#X obj 143 153 inlet _1;
#X obj 215 153 inlet _2;
#X obj 195 288 outlet;
#X obj 178 199 << 8;
#X connect 0 0 1 0;
#X connect 1 0 4 0;
#X connect 2 0 5 0;
#X connect 3 0 0 1;
#X connect 5 0 0 0;
#X restore 133 327 pd BS1;
#X obj 28 350 2comp;
#X obj 78 351 2comp;
#X obj 133 350 2comp;
#N canvas 409 182 450 300 BS 0;
#X obj 194 200 |;
#X floatatom 194 224 5 0 0 0 - - -;
#X obj 141 127 inlet _1;
#X obj 262 135 inlet _2;
#X obj 194 247 outlet;
#X obj 261 175 << 8;
#X connect 0 0 1 0;
#X connect 1 0 4 0;
#X connect 2 0 0 0;
#X connect 3 0 5 0;
#X connect 5 0 0 1;
#X restore 923 45 pd BS;
#X obj 33 577 * -1;
#X obj 491 602 expr if($f1 > 0 \, $f1* -1 \, $f1);
#X connect 0 0 28 0;
#X connect 1 0 3 0;
#X connect 2 0 19 0;
#X connect 2 0 28 0;
#X connect 3 0 29 0;
#X connect 3 1 29 1;
#X connect 3 2 30 0;
#X connect 3 3 30 1;
#X connect 3 4 31 0;
#X connect 3 5 31 1;
#X connect 4 0 20 0;
#X connect 4 0 28 0;
#X connect 5 0 24 0;
#X connect 6 0 24 2;
#X connect 7 0 37 0;
#X connect 8 0 24 1;
#X connect 9 0 23 0;
#X connect 10 0 23 2;
#X connect 11 0 16 0;
#X connect 12 0 23 1;
#X connect 13 0 0 0;
#X connect 14 0 4 0;
#X connect 15 0 22 0;
#X connect 21 0 20 0;
#X connect 22 0 2 0;
#X connect 23 0 36 0;
#X connect 24 0 7 0;
#X connect 28 0 1 0;
#X connect 29 0 32 0;
#X connect 30 0 33 0;
#X connect 31 0 34 0;
#X connect 32 0 9 0;
#X connect 32 0 8 0;
#X connect 33 0 12 0;
#X connect 33 0 5 0;
#X connect 34 0 10 0;
#X connect 34 0 6 0;
#X connect 36 0 11 0;
#X connect 37 0 17 0;
