#N canvas 697 76 1109 872 12;
#X msg 32 112 devices;
#X obj 32 195 mrpeach/slipdec;
#X msg 255 138 close;
#X obj 32 218 unpack f f f f f f;
#X msg 134 112 open 5;
#X obj 32 89 inlet devices;
#X obj 134 89 inlet open;
#X obj 255 88 inlet close;
#X obj 32 398 outlet pitch;
#X obj 489 399 outlet roll;
#X obj 255 161 print;
#X obj 134 136 print;
#X msg 190 112 open 4;
#X obj 255 112 delay 500;
#X obj 32 351 expr atan(-1 * $f1 / (sqrt(pow($f2 \, 2) + pow($f3 \,
2)))) * 57.3, f 63;
#X obj 489 352 expr atan($f1 / (sqrt(pow($f2 \, 2) + pow($f3 \, 2))))
* 57.3;
#X text 170 386 gauche-droite;
#X text 725 381 avant arriere;
#X obj 32 171 comport \$1 9600;
#N canvas 831 172 450 481 BS1 0;
#X obj 195 241 |;
#X obj 143 153 inlet _1;
#X obj 215 153 inlet _2;
#X obj 194 266 outlet;
#X obj 178 199 << 8;
#X connect 0 0 3 0;
#X connect 1 0 4 0;
#X connect 2 0 0 1;
#X connect 4 0 0 0;
#X restore 32 246 pd BS1;
#N canvas 1232 189 450 481 BS1 0;
#X obj 195 241 |;
#X floatatom 195 265 5 0 0 0 - - -;
#X obj 143 153 inlet _1;
#X obj 215 153 inlet _2;
#X obj 195 288 outlet;
#X obj 178 199 << 8;
#X connect 0 0 1 0;
#X connect 1 0 4 0;
#X connect 2 0 5 0;
#X connect 3 0 0 1;
#X connect 5 0 0 0;
#X restore 82 246 pd BS1;
#N canvas 1232 189 450 481 BS1 0;
#X obj 195 241 |;
#X floatatom 195 265 5 0 0 0 - - -;
#X obj 143 153 inlet _1;
#X obj 215 153 inlet _2;
#X obj 195 288 outlet;
#X obj 178 199 << 8;
#X connect 0 0 1 0;
#X connect 1 0 4 0;
#X connect 2 0 5 0;
#X connect 3 0 0 1;
#X connect 5 0 0 0;
#X restore 137 246 pd BS1;
#X obj 32 269 2comp;
#X obj 82 270 2comp;
#X obj 137 269 2comp;
#N canvas 409 182 450 300 BS 0;
#X obj 194 200 |;
#X floatatom 194 224 5 0 0 0 - - -;
#X obj 141 127 inlet _1;
#X obj 262 135 inlet _2;
#X obj 194 247 outlet;
#X obj 261 175 << 8;
#X connect 0 0 1 0;
#X connect 1 0 4 0;
#X connect 2 0 0 0;
#X connect 3 0 5 0;
#X connect 5 0 0 1;
#X restore 923 45 pd BS;
#X obj 32 375 * -1;
#X obj 489 375 expr if($f1 > 0 \, $f1* -1 \, $f1);
#X text 627 305 ROLL;
#X text 56 325 PITCH;
#X text 383 41 INPUT SERIAL;
#X connect 0 0 18 0;
#X connect 1 0 3 0;
#X connect 2 0 10 0;
#X connect 2 0 18 0;
#X connect 3 0 19 0;
#X connect 3 1 19 1;
#X connect 3 2 20 0;
#X connect 3 3 20 1;
#X connect 3 4 21 0;
#X connect 3 5 21 1;
#X connect 4 0 11 0;
#X connect 4 0 18 0;
#X connect 5 0 0 0;
#X connect 6 0 4 0;
#X connect 7 0 13 0;
#X connect 12 0 11 0;
#X connect 13 0 2 0;
#X connect 14 0 26 0;
#X connect 15 0 27 0;
#X connect 18 0 1 0;
#X connect 19 0 22 0;
#X connect 20 0 23 0;
#X connect 21 0 24 0;
#X connect 22 0 14 0;
#X connect 22 0 15 1;
#X connect 23 0 14 1;
#X connect 23 0 15 0;
#X connect 24 0 14 2;
#X connect 24 0 15 2;
#X connect 26 0 8 0;
#X connect 27 0 9 0;
