#N canvas 135 76 924 890 12;
#X obj 94 267 hidio;
#X msg 95 78 open 0x046d 0xc214;
#X msg 122 154 info;
#X msg 105 102 devices;
#X msg 115 129 elements;
#N canvas 448 343 709 310 device 0;
#N canvas 187 530 1014 264 route 0;
#X obj 27 14 inlet;
#X obj 72 226 outlet;
#X obj 19 226 outlet;
#X obj 172 226 outlet;
#X obj 222 204 symbol;
#X obj 222 226 outlet;
#X obj 272 204 symbol;
#X obj 272 226 outlet;
#X obj 322 204 symbol;
#X obj 322 226 outlet;
#X obj 372 204 symbol;
#X obj 372 226 outlet;
#X obj 122 225 outlet;
#X obj 422 204 symbol;
#X obj 422 226 outlet;
#X obj 472 204 symbol;
#X obj 472 226 outlet;
#X obj 27 59 route open device poll total product manufacturer transport
type vendorID productID serial version, f 99;
#X obj 524 204 symbol;
#X obj 524 226 outlet;
#X obj 574 204 symbol;
#X obj 574 226 outlet;
#X obj 624 226 outlet;
#X connect 0 0 17 0;
#X connect 4 0 5 0;
#X connect 6 0 7 0;
#X connect 8 0 9 0;
#X connect 10 0 11 0;
#X connect 13 0 14 0;
#X connect 15 0 16 0;
#X connect 17 0 2 0;
#X connect 17 1 1 0;
#X connect 17 2 12 0;
#X connect 17 3 3 0;
#X connect 17 4 4 0;
#X connect 17 5 6 0;
#X connect 17 6 8 0;
#X connect 17 7 10 0;
#X connect 17 8 13 0;
#X connect 17 9 15 0;
#X connect 17 10 18 0;
#X connect 17 11 20 0;
#X connect 17 12 22 0;
#X connect 18 0 19 0;
#X connect 20 0 21 0;
#X restore 111 131 pd route info;
#X f 70;
#X obj 111 196 tgl 15 0 empty empty open 0 -6 0 8 -262144 -1 -1 0 1
;
#X obj 111 22 inlet;
#X obj 157 104 print info;
#X symbolatom 423 152 0 0 0 0 productID - -;
#X symbolatom 389 172 0 0 0 0 vendorID - -;
#X symbolatom 319 212 0 0 0 0 transport - -;
#X symbolatom 284 232 0 0 0 0 manufacturer - -;
#X symbolatom 250 253 0 0 0 0 product - -;
#X floatatom 145 152 5 0 0 0 device - -;
#X floatatom 180 172 5 0 0 0 poll - -;
#X symbolatom 354 192 0 0 0 0 type - -;
#X floatatom 215 192 5 0 0 0 total - -;
#X obj 208 22 inlet;
#N canvas 0 22 450 300 spigot 0;
#X obj 78 31 inlet;
#X obj 83 263 outlet;
#X obj 210 32 inlet;
#X obj 210 67 select 0;
#X msg 210 90 0;
#X obj 255 89 bang;
#X obj 82 148 spigot;
#X msg 255 110 1;
#X connect 0 0 6 0;
#X connect 2 0 3 0;
#X connect 3 0 4 0;
#X connect 3 1 5 0;
#X connect 4 0 6 1;
#X connect 5 0 7 0;
#X connect 6 0 1 0;
#X connect 7 0 6 1;
#X restore 157 84 pd spigot;
#X symbolatom 460 212 0 0 0 0 serial - -;
#X symbolatom 493 192 0 0 0 0 version - -;
#X obj 528 152 print other_info;
#X obj 423 255 print prod ID;
#X obj 338 282 print vend ID;
#X connect 0 0 1 0;
#X connect 0 1 9 0;
#X connect 0 2 10 0;
#X connect 0 3 12 0;
#X connect 0 4 8 0;
#X connect 0 5 7 0;
#X connect 0 6 6 0;
#X connect 0 7 11 0;
#X connect 0 8 5 0;
#X connect 0 9 4 0;
#X connect 0 10 15 0;
#X connect 0 11 16 0;
#X connect 0 12 17 0;
#X connect 2 0 0 0;
#X connect 2 0 14 0;
#X connect 4 0 18 0;
#X connect 5 0 19 0;
#X connect 13 0 14 1;
#X connect 14 0 3 0;
#X restore 126 298 pd device info;
#X obj 221 280 tgl 15 0 empty empty empty 17 7 0 10 -262144 -1 -1 1
1;
#X obj 19 238 tgl 15 0 empty empty empty 17 7 0 10 -262144 -1 -1 0
1;
#X floatatom 122 203 5 0 0 1 device - -;
#X msg 122 226 open \$1;
#X obj 221 255 loadbang;
#N canvas 421 390 454 252 remove 0;
#X obj 134 12 inlet;
#X obj 109 60 unpack symbol symbol float float;
#X obj 110 107 pack symbol symbol float;
#X obj 110 135 list trim;
#X obj 116 196 outlet;
#X connect 0 0 1 0;
#X connect 1 0 2 0;
#X connect 1 1 2 1;
#X connect 1 3 2 2;
#X connect 2 0 3 0;
#X connect 3 0 4 0;
#X restore 94 326 pd remove instance numbers;
#X obj 94 375 route x y z;
#X obj 94 350 route absolute button;
#N canvas 945 111 775 450 btn-output 0;
#X floatatom 110 218 5 0 0 3 _1 - -;
#X obj 119 143 inlet;
#X obj 119 167 route button_1 button_2 button_3 button_4 button_5 button_6
button_7 button_8 button_9 button_10 button_11;
#X floatatom 152 219 5 0 0 3 _2 - -;
#X floatatom 192 219 5 0 0 3 _3 - -;
#X floatatom 232 219 5 0 0 3 _4 - -;
#X floatatom 273 219 5 0 0 3 _5 - -;
#X floatatom 313 219 5 0 0 3 _6 - -;
#X floatatom 359 223 5 0 0 3 _7 - -;
#X floatatom 405 225 5 0 0 3 _8 - -;
#X floatatom 451 225 5 0 0 3 _9 - -;
#X floatatom 498 225 5 0 0 3 _10 - -;
#X floatatom 553 226 5 0 0 3 _11 - -;
#X obj -1 279 outlet _1;
#X obj 28 306 outlet _2;
#X obj 68 334 outlet _3;
#X obj 124 306 outlet _4;
#X obj 162 331 outlet _5;
#X obj 217 304 outlet _6;
#X obj 265 332 outlet _7;
#X obj 322 303 outlet _8;
#X obj 368 334 outlet _9;
#X obj 418 306 outlet _10;
#X obj 492 331 outlet _11;
#X connect 0 0 13 0;
#X connect 1 0 2 0;
#X connect 2 0 0 0;
#X connect 2 1 3 0;
#X connect 2 2 4 0;
#X connect 2 3 5 0;
#X connect 2 4 6 0;
#X connect 2 5 7 0;
#X connect 2 6 8 0;
#X connect 2 7 9 0;
#X connect 2 8 10 0;
#X connect 2 9 11 0;
#X connect 2 10 12 0;
#X connect 3 0 14 0;
#X connect 4 0 15 0;
#X connect 5 0 16 0;
#X connect 6 0 17 0;
#X connect 7 0 18 0;
#X connect 8 0 19 0;
#X connect 9 0 20 0;
#X connect 10 0 21 0;
#X connect 11 0 22 0;
#X connect 12 0 23 0;
#X restore 335 389 pd btn-output;
#X f 31;
#X obj 19 216 inlet bng;
#X obj 30 410 outlet x;
#X obj 94 410 outlet y;
#X obj 158 411 outlet z;
#X obj 122 181 inlet deviceNum;
#X obj 259 78 inlet decices;
#X obj 511 428 bng 15 250 50 0 empty empty empty 17 7 0 10 -262144
-1 -1;
#X obj 531 428 bng 15 250 50 0 empty empty empty 17 7 0 10 -262144
-1 -1;
#X obj 550 428 bng 15 250 50 0 empty empty empty 17 7 0 10 -262144
-1 -1;
#X obj 568 428 bng 15 250 50 0 empty empty empty 17 7 0 10 -262144
-1 -1;
#X obj 587 428 bng 15 250 50 0 empty empty empty 17 7 0 10 -262144
-1 -1;
#X obj 178 516 send start-stop;
#X obj 178 493 sel 1;
#X obj 178 474 tgl 15 0 empty empty empty 17 7 0 10 -262144 -1 -1 0
1;
#X obj 381 428 tgl 15 0 empty empty empty 17 7 0 10 -262144 -1 -1 0
1;
#X obj 381 448 sel 1;
#X text 194 471 trigger;
#X obj 422 428 tgl 15 0 empty empty empty 17 7 0 10 -262144 -1 -1 0
1;
#X obj 422 448 sel 1;
#X msg 422 472 1;
#X obj 463 428 tgl 15 0 empty empty empty 17 7 0 10 -262144 -1 -1 0
1;
#X obj 463 448 sel 1;
#X obj 340 448 sel 1;
#X obj 373 569 cyclone/counter 1 10;
#X obj 340 428 tgl 15 0 empty empty empty 17 7 0 10 -262144 -1 -1 0
1;
#X msg 463 472 0;
#X obj 373 593 sel 1 2 3 4 5 6 7 8 9 10;
#X msg 271 625 50;
#X msg 308 627 100;
#X msg 341 627 150;
#X msg 381 628 200;
#X msg 423 630 250;
#X msg 460 630 300;
#X msg 505 633 350;
#X msg 546 633 400;
#X msg 592 634 450;
#X msg 637 637 500;
#X floatatom 446 684 5 0 0 0 - - -;
#X obj 446 707 send speed;
#X text 551 594 speed control;
#X text 97 50 INPUT HID;
#X connect 0 0 11 0;
#X connect 0 1 5 0;
#X connect 1 0 0 0;
#X connect 2 0 0 0;
#X connect 3 0 0 0;
#X connect 4 0 0 0;
#X connect 6 0 5 1;
#X connect 7 0 0 0;
#X connect 8 0 9 0;
#X connect 9 0 0 0;
#X connect 10 0 6 0;
#X connect 11 0 13 0;
#X connect 12 0 16 0;
#X connect 12 1 17 0;
#X connect 12 2 18 0;
#X connect 13 0 12 0;
#X connect 13 1 14 0;
#X connect 14 0 28 0;
#X connect 14 1 39 0;
#X connect 14 2 29 0;
#X connect 14 3 32 0;
#X connect 14 4 35 0;
#X connect 14 6 21 0;
#X connect 14 7 22 0;
#X connect 14 8 23 0;
#X connect 14 9 24 0;
#X connect 14 10 25 0;
#X connect 15 0 7 0;
#X connect 19 0 8 0;
#X connect 20 0 3 0;
#X connect 27 0 26 0;
#X connect 28 0 27 0;
#X connect 29 0 30 0;
#X connect 30 0 38 0;
#X connect 32 0 33 0;
#X connect 33 0 34 0;
#X connect 34 0 38 1;
#X connect 35 0 36 0;
#X connect 36 0 40 0;
#X connect 37 0 38 2;
#X connect 37 0 38 0;
#X connect 38 0 41 0;
#X connect 39 0 37 0;
#X connect 40 0 38 1;
#X connect 41 0 42 0;
#X connect 41 1 43 0;
#X connect 41 2 44 0;
#X connect 41 3 45 0;
#X connect 41 4 46 0;
#X connect 41 5 47 0;
#X connect 41 6 48 0;
#X connect 41 7 49 0;
#X connect 41 8 50 0;
#X connect 41 9 51 0;
#X connect 42 0 52 0;
#X connect 43 0 52 0;
#X connect 44 0 52 0;
#X connect 45 0 52 0;
#X connect 46 0 52 0;
#X connect 47 0 52 0;
#X connect 48 0 52 0;
#X connect 49 0 52 0;
#X connect 50 0 52 0;
#X connect 51 0 52 0;
#X connect 52 0 53 0;
