#N canvas 538 53 985 744 12;
#X obj 316 315 dac~;
#X obj 310 289 *~;
#X obj 342 289 *~;
#X obj 387 259 line~;
#X obj 390 214 hsl 128 15 0 1 0 0 empty empty empty -2 -8 0 10 -258113
-4032 -4032 0 1;
#X msg 387 237 \$1 50;
#N canvas 600 386 450 300 bandpass 0;
#X obj 84 45 inlet~ input;
#X obj 187 47 inlet frq;
#X obj 286 43 inlet q;
#X obj 161 177 outlet~;
#X obj 160 153 lop~ 100;
#X connect 0 0 4 0;
#X connect 1 0 4 1;
#X connect 4 0 3 0;
#X restore 262 250 pd bandpass;
#X obj 102 245 303~;
#X floatatom 89 222 5 20 20000 2 Freq - -;
#X floatatom 134 223 5 0 100 2 filter - -;
#X obj 43 103 tgl 20 0 empty empty press_btn_1 25 7 0 12 -4034 -262144
-258113 0 1;
#X obj 43 142 metro 150;
#X obj 43 192 + 20;
#X obj 43 166 random 100;
#X floatatom 299 228 5 0 20000 0 - - -;
#X floatatom 336 228 5 0 3 0 - - -;
#X obj 262 97 hid_control;
#X obj 262 78 tgl 15 0 empty empty empty 17 7 0 10 -262144 -1 -1 0
1;
#X obj 336 78 bng 15 250 50 0 empty empty devices_list 17 7 0 10 -262144
-1 -1;
#X floatatom 299 45 5 0 50 1 device_num - -;
#X obj 262 145 + 1;
#X obj 262 121 / 2;
#X obj 299 120 * 78;
#X obj 43 73 receive start-stop;
#X obj 355 120 * -1;
#X obj 355 143 + 255;
#X obj 355 166 / 255;
#X obj 299 144 * -1;
#X obj 299 168 + 19890;
#X obj 630 269 arduino_serial_input, f 33;
#X floatatom 630 293 5 0 0 1 pitch - -;
#X floatatom 858 293 5 0 0 1 roll - -;
#X obj 858 247 r moteur;
#X msg 630 247 devices;
#X msg 706 247 open;
#X obj 782 246 bng 15 250 50 0 empty empty empty 17 7 0 10 -262144
-1 -1;
#X text 778 228 close;
#X obj 644 390 sig~;
#X floatatom 858 338 5 30 250 0 - - -;
#X obj 643 418 phasor~;
#X obj 605 479 lop~;
#X floatatom 630 339 5 0 0 0 - - -;
#X obj 605 417 osc~;
#X obj 643 442 *~ 0.5;
#X msg 826 338 0;
#X obj 858 314 + 100;
#X obj 706 222 sel 1;
#X text 724 165 SERIAL;
#X text 422 58 HID;
#X obj 152 112 r speed;
#X obj 782 299 delay 500;
#X obj 630 316 * 1.5;
#X obj 605 507 *~ 0.5;
#X text 33 271 synth arp 303;
#X text 709 423 bass;
#X connect 1 0 0 0;
#X connect 2 0 0 1;
#X connect 3 0 1 1;
#X connect 3 0 2 1;
#X connect 4 0 5 0;
#X connect 5 0 3 0;
#X connect 6 0 1 0;
#X connect 6 0 2 0;
#X connect 7 0 6 0;
#X connect 8 0 7 0;
#X connect 9 0 7 1;
#X connect 10 0 11 0;
#X connect 10 0 46 0;
#X connect 11 0 13 0;
#X connect 12 0 8 0;
#X connect 13 0 12 0;
#X connect 14 0 6 1;
#X connect 15 0 6 2;
#X connect 16 0 21 0;
#X connect 16 1 22 0;
#X connect 16 2 24 0;
#X connect 17 0 16 0;
#X connect 18 0 16 2;
#X connect 19 0 16 1;
#X connect 20 0 9 0;
#X connect 21 0 20 0;
#X connect 22 0 27 0;
#X connect 23 0 10 0;
#X connect 24 0 25 0;
#X connect 25 0 26 0;
#X connect 26 0 4 0;
#X connect 27 0 28 0;
#X connect 28 0 14 0;
#X connect 29 0 30 0;
#X connect 29 1 31 0;
#X connect 30 0 51 0;
#X connect 31 0 45 0;
#X connect 33 0 29 0;
#X connect 34 0 29 1;
#X connect 35 0 29 2;
#X connect 35 0 50 0;
#X connect 37 0 39 0;
#X connect 37 0 42 0;
#X connect 38 0 37 0;
#X connect 39 0 43 0;
#X connect 40 0 52 0;
#X connect 41 0 40 1;
#X connect 42 0 40 0;
#X connect 43 0 40 0;
#X connect 44 0 38 0;
#X connect 45 0 38 0;
#X connect 46 0 34 0;
#X connect 46 1 35 0;
#X connect 49 0 11 1;
#X connect 50 0 44 0;
#X connect 51 0 41 0;
#X connect 52 0 1 0;
#X connect 52 0 2 0;
